<?xml version="1.0" standalone="no"?>
<!DOCTYPE svg PUBLIC "-//W3C//DTD SVG 20010904//EN"
 "http://www.w3.org/TR/2001/REC-SVG-20010904/DTD/svg10.dtd">
<svg version="1.0" xmlns="http://www.w3.org/2000/svg"
 width="848.000000pt" height="848.000000pt" viewBox="0 0 848.000000 848.000000"
 preserveAspectRatio="xMidYMid meet">
<metadata>
Created by potrace 1.14, written by Peter Selinger 2001-2017
</metadata>
<g transform="translate(0.000000,848.000000) scale(0.100000,-0.100000)"
fill="#000000" stroke="none">
<path d="M4157 8214 c-9 -19 -14 -41 -11 -47 4 -7 3 -9 -1 -4 -8 6 -64 -96
-65 -117 0 -5 -7 -17 -15 -26 -9 -10 -18 -27 -20 -40 -2 -13 -11 -30 -20 -40
-8 -9 -15 -20 -15 -24 0 -4 -16 -39 -35 -77 -19 -38 -31 -69 -27 -69 4 0 2 -4
-4 -8 -8 -5 -154 -291 -159 -312 0 -3 -27 -58 -58 -122 -32 -65 -57 -121 -56
-124 0 -4 -3 -10 -8 -13 -4 -3 -22 -35 -40 -71 -17 -36 -67 -138 -111 -227
-44 -90 -77 -163 -74 -163 4 0 2 -4 -3 -8 -10 -7 -87 -160 -83 -165 2 -1 -7
-18 -20 -38 -12 -20 -19 -39 -15 -42 3 -4 1 -7 -5 -7 -6 0 -16 -16 -23 -35 -7
-19 -17 -35 -23 -35 -5 0 -7 -3 -4 -6 4 -3 -18 -53 -48 -111 -29 -59 -50 -111
-47 -116 3 -6 2 -7 -3 -4 -6 3 -19 -16 -29 -44 -11 -27 -23 -49 -27 -49 -4 0
-7 -3 -6 -7 1 -5 -16 -44 -38 -88 -21 -44 -38 -86 -37 -92 0 -7 -3 -13 -7 -13
-10 0 -52 -80 -42 -80 4 0 3 -4 -3 -8 -12 -9 -59 -104 -57 -114 1 -5 -2 -8 -8
-8 -5 0 -10 -9 -10 -20 0 -11 -5 -20 -10 -20 -6 0 -9 -3 -8 -8 4 -10 -64 -145
-77 -154 -5 -4 -6 -8 -1 -8 4 0 1 -11 -8 -25 -9 -14 -13 -25 -9 -25 5 0 3 -4
-2 -8 -13 -8 -95 -174 -95 -191 0 -6 -4 -11 -9 -11 -5 0 -12 -13 -16 -30 -4
-16 -10 -30 -14 -30 -5 0 -27 -43 -35 -70 -1 -3 -27 -57 -58 -120 -31 -63 -56
-119 -56 -124 0 -5 -4 -12 -9 -15 -7 -5 -75 -137 -78 -151 -3 -16 -81 -166
-90 -172 -5 -4 -6 -8 -2 -8 4 0 -6 -25 -22 -55 -17 -30 -27 -55 -23 -55 4 0 2
-4 -4 -8 -17 -11 -26 -49 -14 -57 5 -3 10 -13 10 -22 0 -8 10 -29 22 -46 13
-18 22 -33 20 -35 -3 -3 40 -95 126 -272 31 -63 57 -117 58 -120 11 -36 18
-50 25 -50 5 0 9 -6 9 -14 0 -8 13 -40 30 -71 17 -31 30 -63 30 -71 0 -8 5
-14 10 -14 6 0 10 -9 10 -20 0 -11 5 -20 10 -20 6 0 10 -6 10 -13 0 -7 14 -39
30 -70 17 -32 30 -64 30 -72 0 -7 3 -15 8 -17 4 -1 14 -19 23 -38 9 -19 41
-87 72 -150 30 -63 65 -137 78 -165 12 -27 28 -53 33 -57 6 -4 7 -8 3 -8 -5 0
1 -17 12 -38 11 -20 52 -104 92 -187 39 -82 94 -197 122 -255 28 -58 51 -107
52 -110 7 -23 60 -126 68 -131 5 -3 8 -9 8 -13 -1 -3 0 -8 0 -11 1 -3 2 -8 3
-12 1 -5 37 -80 80 -168 122 -251 256 -529 339 -705 17 -36 30 -68 29 -72 -1
-5 2 -8 8 -8 5 0 10 -4 10 -9 0 -8 69 -156 208 -441 36 -74 66 -137 67 -140 0
-3 29 -63 63 -133 34 -71 62 -133 62 -138 0 -5 5 -9 11 -9 5 0 7 -4 4 -10 -3
-5 -2 -10 2 -10 7 0 320 623 379 753 8 18 19 39 24 47 19 31 410 831 410 840
0 6 5 10 10 10 6 0 10 5 10 11 0 6 56 125 125 265 69 140 130 264 135 277 6
12 14 29 19 37 6 8 38 74 72 145 35 72 67 133 73 137 6 4 8 8 4 8 -4 0 26 66
67 148 114 230 299 606 300 612 3 11 40 85 46 90 3 3 11 21 19 40 7 19 22 47
31 61 10 14 16 29 12 33 -3 3 0 6 7 6 7 0 11 3 7 6 -3 3 9 35 28 69 18 35 31
66 27 69 -3 3 0 6 6 6 10 0 21 21 23 45 0 6 8 18 16 28 9 9 12 17 7 17 -5 0
-4 4 1 8 6 4 29 46 53 94 l42 88 -80 165 c-44 91 -80 168 -80 171 0 3 -9 18
-19 32 -10 15 -20 30 -21 34 -1 4 -4 17 -7 28 -3 11 -10 20 -16 20 -6 0 -8 3
-5 6 4 3 -9 35 -28 72 -18 37 -34 73 -34 80 0 6 -4 12 -8 12 -6 0 -26 38 -36
70 -1 3 -25 53 -54 112 -29 60 -51 109 -50 110 2 2 -7 17 -19 34 -12 17 -20
34 -16 38 3 3 1 6 -5 6 -7 0 -11 3 -10 8 1 4 -6 22 -15 40 -10 17 -14 32 -10
32 5 0 3 4 -2 8 -12 8 -95 178 -95 193 0 5 -5 9 -10 9 -6 0 -9 3 -8 8 1 4 -29
70 -67 147 -38 77 -70 142 -71 145 -1 3 -5 15 -9 28 -4 12 -11 22 -16 22 -5 0
-8 3 -7 8 2 11 -13 45 -30 65 -8 9 -12 17 -8 17 4 0 -6 26 -23 57 -17 31 -31
63 -31 70 0 7 -4 13 -10 13 -5 0 -10 12 -10 26 0 14 -4 23 -10 19 -5 -3 -10
-1 -10 4 0 6 -25 62 -55 126 -30 63 -55 119 -55 125 0 5 -5 10 -10 10 -6 0
-10 3 -9 8 2 15 -14 52 -23 52 -5 0 -7 4 -3 9 3 5 1 12 -5 16 -6 4 -8 11 -5
16 4 5 -1 12 -9 15 -9 3 -14 10 -11 14 3 5 1 11 -5 15 -6 4 -8 10 -6 14 3 4
-2 17 -12 27 -9 11 -18 25 -19 32 -2 6 -38 85 -82 174 -217 449 -251 519 -251
528 0 6 -4 10 -10 10 -5 0 -9 3 -8 8 1 4 -17 46 -40 94 -23 48 -43 91 -43 95
-1 5 -9 19 -19 33 -9 14 -23 42 -29 63 -7 20 -17 37 -22 37 -5 0 -9 6 -9 14 0
13 -38 94 -50 106 -3 3 -6 12 -8 20 -6 23 -66 145 -74 148 -5 2 -8 9 -8 15 0
18 -73 167 -81 167 -5 0 -6 7 -3 15 4 8 1 15 -6 15 -6 0 -8 5 -5 10 3 6 0 10
-7 10 -7 0 -21 -16 -31 -36z"/>
</g>
</svg>
